<svg id="Group_27" data-name="Group 27" xmlns="http://www.w3.org/2000/svg" width="124.928" height="124.928" viewBox="0 0 124.928 124.928">
  <g id="scoreboard" transform="translate(0 0)">
    <g id="Group_25" data-name="Group 25">
      <g id="Group_24" data-name="Group 24">
        <path id="Path_6" data-name="Path 6" d="M122.846,170.957a2.082,2.082,0,0,0,2.082-2.082V98.082A2.082,2.082,0,0,0,122.846,96H2.082A2.082,2.082,0,0,0,0,98.082v70.793a2.082,2.082,0,0,0,2.082,2.082H27.068v20.821H0v4.164H124.928v-4.164H97.861V170.957ZM35.4,191.778H31.232V170.957H35.4Zm49.971,0H39.561V170.957H85.368Zm8.329,0H89.532V170.957H93.7ZM4.164,166.793V100.164h116.6v66.628Z" transform="translate(0 -71.014)" fill="#fff"/>
        <path id="Path_7" data-name="Path 7" d="M114.082,205.479h4.164V168h-4.164v2.082H112v4.164h2.082Z" transform="translate(-82.85 -124.275)" fill="#fff"/>
        <path id="Path_8" data-name="Path 8" d="M314.082,205.479h18.739v-4.164H316.164V188.821h14.575a2.082,2.082,0,0,0,2.082-2.082V170.082A2.082,2.082,0,0,0,330.739,168H312v4.164h16.657v12.493H314.082A2.082,2.082,0,0,0,312,186.739V203.4A2.082,2.082,0,0,0,314.082,205.479Z" transform="translate(-230.797 -124.275)" fill="#fff"/>
        <path id="Path_9" data-name="Path 9" d="M311.561,128H274.082A2.082,2.082,0,0,0,272,130.082v54.136a2.082,2.082,0,0,0,2.082,2.082h37.479a2.082,2.082,0,0,0,2.082-2.082V130.082A2.082,2.082,0,0,0,311.561,128Zm-2.082,54.136H276.164V132.164h33.314Z" transform="translate(-201.207 -94.686)" fill="#fff"/>
        <path id="Path_10" data-name="Path 10" d="M87.561,128H50.082A2.082,2.082,0,0,0,48,130.082v54.136a2.082,2.082,0,0,0,2.082,2.082H87.561a2.082,2.082,0,0,0,2.082-2.082V130.082A2.082,2.082,0,0,0,87.561,128Zm-2.082,54.136H52.164V132.164H85.479Z" transform="translate(-35.507 -94.686)" fill="#fff"/>
        <path id="Path_11" data-name="Path 11" d="M10.082,20.821H64.218A2.082,2.082,0,0,0,66.3,18.739V2.082A2.082,2.082,0,0,0,64.218,0H10.082A2.082,2.082,0,0,0,8,2.082V18.739A2.082,2.082,0,0,0,10.082,20.821ZM12.164,4.164H62.136V16.657H12.164Z" transform="translate(-5.918 0)" fill="#fff"/>
        <rect id="Rectangle_6" data-name="Rectangle 6" width="4" height="3" transform="translate(29 8.928)" fill="#fff"/>
        <rect id="Rectangle_7" data-name="Rectangle 7" width="6" height="3" transform="translate(36 8.928)" fill="#fff"/>
        <rect id="Rectangle_8" data-name="Rectangle 8" width="3" height="3" transform="translate(46 8.928)" fill="#fff"/>
        <rect id="Rectangle_9" data-name="Rectangle 9" width="6" height="3" transform="translate(20 8.928)" fill="#fff"/>
        <rect id="Rectangle_10" data-name="Rectangle 10" width="4" height="3" transform="translate(12 8.928)" fill="#fff"/>
        <path id="Path_12" data-name="Path 12" d="M250.082,20.821h54.136a2.082,2.082,0,0,0,2.082-2.082V2.082A2.082,2.082,0,0,0,304.218,0H250.082A2.082,2.082,0,0,0,248,2.082V18.739A2.082,2.082,0,0,0,250.082,20.821Zm2.082-16.657h49.971V16.657H252.164Z" transform="translate(-183.454 0)" fill="#fff"/>
        <rect id="Rectangle_11" data-name="Rectangle 11" width="1" height="3" transform="translate(93 8.928)" fill="#fff"/>
        <rect id="Rectangle_12" data-name="Rectangle 12" width="6" height="3" transform="translate(83 8.928)" fill="#fff"/>
        <rect id="Rectangle_13" data-name="Rectangle 13" width="2" height="3" transform="translate(76 8.928)" fill="#fff"/>
        <rect id="Rectangle_14" data-name="Rectangle 14" width="5" height="3" transform="translate(100 8.928)" fill="#fff"/>
        <rect id="Rectangle_15" data-name="Rectangle 15" width="6" height="3" transform="translate(107 8.928)" fill="#fff"/>
      </g>
    </g>
  </g>
</svg>
